<svg width="229" height="229" viewBox="0 0 229 229" fill="none" xmlns="http://www.w3.org/2000/svg">
<path d="M112.067 28.0525C109.67 28.142 107.415 29.1796 105.769 30.915L19.3219 117.362C-6.19014 142.875 -6.19014 184.309 19.3219 209.821C44.8339 235.333 86.2686 235.333 111.781 209.821C119.545 202.057 176.616 144.986 176.616 144.986C179.014 142.696 179.998 139.296 179.175 136.076C178.352 132.874 175.865 130.351 172.662 129.492C169.46 128.634 166.043 129.582 163.735 131.961C163.735 131.961 106.682 188.997 98.8994 196.797C80.3289 215.367 50.9167 215.367 32.3463 196.797C13.7758 178.226 13.7758 148.814 32.3463 130.244L118.651 43.7963C121.37 41.1663 122.193 37.1588 120.726 33.6702C119.277 30.1994 115.842 27.9631 112.067 28.0525ZM169.639 22.4348C167.242 22.5243 164.987 23.5619 163.341 25.2973L103.479 85.1594C100.742 87.3599 99.5077 90.9202 100.295 94.3373C101.082 97.7723 103.748 100.438 107.183 101.225C110.6 102.012 114.16 100.778 116.361 98.0406L176.223 38.1786C178.942 35.5487 179.765 31.5412 178.298 28.0525C176.849 24.5817 173.414 22.3454 169.639 22.4348ZM182.914 64.12C180.516 64.2095 178.262 65.2471 176.616 66.9825L121.799 121.799C119.062 124 117.828 127.56 118.615 130.977C119.402 134.412 122.068 137.078 125.503 137.865C128.92 138.652 132.48 137.418 134.681 134.681L189.498 79.8638C192.217 77.2338 193.04 73.2263 191.573 69.7377C190.124 66.2669 186.689 64.0306 182.914 64.12ZM192.36 109.92C187.297 109.92 183.2 114.017 183.2 119.08C183.2 124.143 187.297 128.24 192.36 128.24C197.423 128.24 201.52 124.143 201.52 119.08C201.52 114.017 197.423 109.92 192.36 109.92Z" fill="white"/>
<ellipse cx="64.12" cy="164.88" rx="36.64" ry="36.64" fill="white"/>
</svg>
