<svg width="16" height="16" viewBox="0 0 16 16" fill="none" xmlns="http://www.w3.org/2000/svg">
<path fill-rule="evenodd" clip-rule="evenodd" d="M15.68 8.18183C15.68 7.61456 15.6291 7.06911 15.5345 6.54547H8V9.64002H12.3055C12.12 10.64 11.5564 11.4873 10.7091 12.0546V14.0618H13.2945C14.8073 12.6691 15.68 10.6182 15.68 8.18183Z" fill="#4285F4"/>
<path fill-rule="evenodd" clip-rule="evenodd" d="M7.99968 16C10.1597 16 11.9706 15.2837 13.2942 14.0618L10.7088 12.0546C9.9924 12.5346 9.07604 12.8182 7.99968 12.8182C5.91604 12.8182 4.1524 11.4109 3.52331 9.52002H0.850586V11.5927C2.16695 14.2073 4.8724 16 7.99968 16Z" fill="#34A853"/>
<path fill-rule="evenodd" clip-rule="evenodd" d="M3.52364 9.52001C3.36364 9.04001 3.27273 8.52729 3.27273 8.00001C3.27273 7.47274 3.36364 6.96001 3.52364 6.48001V4.40729H0.850909C0.309091 5.48729 0 6.70911 0 8.00001C0 9.29092 0.309091 10.5127 0.850909 11.5927L3.52364 9.52001Z" fill="#FBBC05"/>
<path fill-rule="evenodd" clip-rule="evenodd" d="M7.99968 3.18182C9.17422 3.18182 10.2288 3.58545 11.0579 4.37818L13.3524 2.08364C11.9669 0.792727 10.156 0 7.99968 0C4.8724 0 2.16695 1.79273 0.850586 4.40727L3.52331 6.48C4.1524 4.58909 5.91604 3.18182 7.99968 3.18182Z" fill="#EA4335"/>
</svg>
