<svg width="103" height="33" viewBox="0 0 103 33" fill="none" xmlns="http://www.w3.org/2000/svg">
<path d="M23.265 31.6113H24.099C24.286 31.6113 24.3866 31.5101 24.3866 31.3221V23.5135L30.9007 31.4378C30.987 31.5535 31.1164 31.6113 31.2602 31.6113H32.1949C32.3818 31.6113 32.4825 31.5101 32.4825 31.3221V21.6914C32.4825 21.5034 32.3818 21.4022 32.1949 21.4022H31.3609C31.1739 21.4022 31.0733 21.5034 31.0733 21.6914V29.5435L24.5304 21.5757C24.4441 21.4601 24.3147 21.4022 24.1709 21.4022H23.265C23.078 21.4022 22.9774 21.5034 22.9774 21.6914V31.3221C22.9774 31.5101 23.078 31.6113 23.265 31.6113ZM38.5237 31.6113H42.133C44.6064 31.6113 45.5411 30.3388 45.5411 28.0974V24.9306C45.5411 22.6747 44.6064 21.4022 42.133 21.4022H38.5237C36.0504 21.4022 35.1157 22.6747 35.1157 24.9306V28.0974C35.1157 30.3388 36.0504 31.6113 38.5237 31.6113ZM38.5237 30.2376C37.0857 30.2376 36.5249 29.7748 36.5249 28.1408V24.8872C36.5249 23.2387 37.0713 22.776 38.5237 22.776H42.133C43.5998 22.776 44.1318 23.2387 44.1318 24.8872V28.1408C44.1318 29.7748 43.5854 30.2376 42.133 30.2376H38.5237ZM48.4629 31.6113H54.6606C57.1195 31.6113 58.0542 30.4689 58.0542 27.8371V25.2343C58.0542 22.588 57.1195 21.4022 54.6606 21.4022H48.4629C48.2759 21.4022 48.1753 21.5034 48.1753 21.6914V31.3221C48.1753 31.5101 48.2759 31.6113 48.4629 31.6113ZM49.5845 30.252V22.776H54.5312C56.0986 22.776 56.6594 23.2821 56.6594 25.2343V27.8227C56.6594 29.7748 56.0842 30.252 54.5312 30.252H49.5845ZM60.9707 31.6113H68.9803C69.1672 31.6113 69.2679 31.5101 69.2679 31.3221V30.5268C69.2679 30.3388 69.1672 30.2376 68.9803 30.2376H62.0923V27.0707H66.7801C66.9671 27.0707 67.0677 26.9695 67.0677 26.7815V26.0296C67.0677 25.8416 66.9671 25.7404 66.7801 25.7404H62.0923V22.776H68.9803C69.1672 22.776 69.2679 22.6747 69.2679 22.4868V21.6914C69.2679 21.5034 69.1672 21.4022 68.9803 21.4022H60.9707C60.7837 21.4022 60.6831 21.5034 60.6831 21.6914V31.3221C60.6831 31.5101 60.7837 31.6113 60.9707 31.6113ZM74.4991 31.6113H77.2457C79.8484 31.6113 80.74 30.6425 80.74 28.7048C80.74 26.8249 79.7909 26.1597 77.5908 25.9862L74.4416 25.7404C73.0755 25.6247 72.5578 25.4078 72.5578 24.3088C72.5578 23.123 73.0755 22.776 74.6717 22.776H77.1882C78.6118 22.776 79.1151 23.2098 79.187 24.5546C79.187 24.7426 79.2876 24.8438 79.4746 24.8438H80.3086C80.4955 24.8438 80.5962 24.7426 80.5962 24.5546C80.5099 22.3855 79.5896 21.4022 77.1882 21.4022H74.6573C72.0545 21.4022 71.163 22.3711 71.163 24.2943C71.163 26.1886 72.0833 26.8104 74.2978 26.984L77.447 27.2443C78.8131 27.3455 79.3451 27.5913 79.3451 28.7048C79.3451 29.8761 78.8131 30.2376 77.2457 30.2376H74.4991C73.0755 30.2376 72.5722 29.8038 72.5003 28.4589C72.5003 28.271 72.3997 28.1697 72.2127 28.1697H71.3787C71.1918 28.1697 71.0911 28.271 71.0911 28.4589C71.1774 30.628 72.0977 31.6113 74.4991 31.6113Z" fill="white"/>
<path d="M13.9786 16.2428C12.6075 16.8482 10.9354 17.1508 8.89546 17.1508C2.9763 17.1508 0 14.1915 0 8.34C0 2.79121 3.00974 0 9.06266 0C10.9019 0 12.5406 0.269032 14.012 0.840726V3.66557C12.574 3.02661 11.0023 2.72395 9.29675 2.72395C5.25032 2.72395 3.24383 4.60718 3.24383 8.34C3.24383 12.4091 5.15 14.4269 8.96234 14.4269C9.53084 14.4269 10.1662 14.326 10.9019 14.1578V9.68516H14.012V16.2428H13.9786Z" fill="white"/>
<path d="M25.9507 0.134644H22.6065L15.45 17.0164H18.6604L20.8675 11.5685H25.75L24.613 8.84457H21.9377L24.2117 3.36303L26.4857 8.8782L27.6227 11.6022L28.2581 13.0818L29.4286 15.873V8.13836L25.9507 0.134644Z" fill="white"/>
<path d="M34.3779 0.134644H31.2679V17.0501H39.2604L40.3974 14.3261H34.3779V0.134644Z" fill="white"/>
<path d="M44.2432 17.0165H41.0328L48.1559 0.101074H51.5L58.7903 17.0165H55.4461L53.5399 12.4093H47.9552L49.0253 9.68536H52.4029L49.7611 3.32946L44.2432 17.0165Z" fill="white"/>
<path d="M64.4419 2.82497H69.1572V0.134644H64.2078C59.4257 0.134644 56.5497 1.81609 55.5464 5.27989L60.3955 16.5456C61.499 16.8819 62.7698 17.0164 64.2078 17.0164C66.0471 17.0164 67.9867 17.0164 69.1572 17.0164V14.3261H64.4419C60.3955 14.3261 58.389 12.4092 58.389 8.37376C58.389 4.60731 60.3955 2.82497 64.4419 2.82497Z" fill="white"/>
<path d="M98.7529 14.2925C94.7065 14.3261 92.7 12.4092 92.6331 8.37375C92.6331 4.64093 94.6396 2.85859 98.6526 2.82496C99.7227 2.82496 100.726 2.79133 101.696 2.79133L102.833 0.0673828C101.428 0.0673828 100.057 0.101012 98.4185 0.101012C92.399 0.134641 89.3893 2.82496 89.4227 8.37375C89.4562 14.2588 92.4994 17.05 98.5188 17.0164C100.358 17.0164 97.9169 17.0164 102.799 17.0164V14.2925C101.696 14.2925 100.458 14.2925 98.7529 14.2925Z" fill="white"/>
<path d="M87.5835 0.101074V2.82503H78.3202V17.0165H75.2101V2.82503H70.3945V0.101074H87.5835Z" fill="white"/>
<path d="M87.5835 4.33813V16.9827H84.4734V4.33813H87.5835Z" fill="white"/>
</svg>
